<mxfile host="Electron" agent="Mozilla/5.0 (X11; Linux x86_64) AppleWebKit/537.36 (KHTML, like Gecko) draw.io/24.7.17 Chrome/128.0.6613.36 Electron/32.0.1 Safari/537.36" version="24.7.17">
  <diagram name="Page-1" id="7fl2-ZSV6QaIEvgjWsZY">
    <mxGraphModel dx="1834" dy="1241" grid="0" gridSize="1" guides="1" tooltips="1" connect="1" arrows="1" fold="1" page="0" pageScale="1" pageWidth="1920" pageHeight="1200" math="0" shadow="0">
      <root>
        <mxCell id="0" />
        <mxCell id="1" parent="0" />
        <mxCell id="YAKH-8tsJ9ISijEvY5ng-2" value="&lt;font style=&quot;font-size: 14px;&quot;&gt;UC-05&lt;/font&gt;&lt;div style=&quot;font-size: 14px;&quot;&gt;Configurar Distribuição dos&lt;span style=&quot;background-color: initial;&quot;&gt;&amp;nbsp;Elevadores&lt;/span&gt;&lt;/div&gt;" style="ellipse;whiteSpace=wrap;html=1;" parent="1" vertex="1">
          <mxGeometry x="48" y="-112" width="160" height="80" as="geometry" />
        </mxCell>
        <mxCell id="YAKH-8tsJ9ISijEvY5ng-10" value="" style="group" parent="1" vertex="1" connectable="0">
          <mxGeometry x="-159" y="-4" width="30" height="500" as="geometry" />
        </mxCell>
        <mxCell id="YAKH-8tsJ9ISijEvY5ng-8" style="edgeStyle=none;curved=0;rounded=1;orthogonalLoop=1;jettySize=auto;html=1;fontSize=12;startSize=8;endSize=8;dashed=1;endArrow=none;endFill=0;" parent="YAKH-8tsJ9ISijEvY5ng-10" source="YAKH-8tsJ9ISijEvY5ng-6" edge="1">
          <mxGeometry relative="1" as="geometry">
            <mxPoint x="15" y="494" as="targetPoint" />
            <mxPoint x="15" y="72.5566318646112" as="sourcePoint" />
          </mxGeometry>
        </mxCell>
        <mxCell id="YAKH-8tsJ9ISijEvY5ng-9" value="" style="edgeStyle=none;curved=0;rounded=1;orthogonalLoop=1;jettySize=auto;html=1;fontSize=12;startSize=8;endSize=8;dashed=1;endArrow=none;endFill=0;" parent="YAKH-8tsJ9ISijEvY5ng-10" target="YAKH-8tsJ9ISijEvY5ng-6" edge="1">
          <mxGeometry relative="1" as="geometry">
            <mxPoint x="15" y="426.3565891472868" as="targetPoint" />
            <mxPoint x="15" y="66.04938271604938" as="sourcePoint" />
          </mxGeometry>
        </mxCell>
        <mxCell id="YAKH-8tsJ9ISijEvY5ng-6" value="" style="html=1;points=[];perimeter=orthogonalPerimeter;rounded=0;shadow=0;comic=0;labelBackgroundColor=none;strokeWidth=1;fontFamily=Verdana;fontSize=12;align=center;" parent="YAKH-8tsJ9ISijEvY5ng-10" vertex="1">
          <mxGeometry x="10" y="91.36" width="10" height="306.64" as="geometry" />
        </mxCell>
        <mxCell id="YAKH-8tsJ9ISijEvY5ng-16" value="" style="endArrow=classic;html=1;rounded=1;strokeColor=default;align=center;verticalAlign=middle;fontFamily=Helvetica;fontSize=12;fontColor=default;labelBackgroundColor=default;edgeStyle=none;startSize=8;endSize=8;curved=0;" parent="1" edge="1">
          <mxGeometry width="50" height="50" relative="1" as="geometry">
            <mxPoint x="-139" y="152" as="sourcePoint" />
            <mxPoint x="94" y="153" as="targetPoint" />
          </mxGeometry>
        </mxCell>
        <mxCell id="YAKH-8tsJ9ISijEvY5ng-17" value="Insere distribuição desejada&lt;div&gt;(seleciona andares para cada elevador)&lt;/div&gt;" style="edgeLabel;html=1;align=center;verticalAlign=middle;resizable=0;points=[];fontSize=11;fontFamily=Helvetica;fontColor=default;labelBackgroundColor=default;" parent="YAKH-8tsJ9ISijEvY5ng-16" vertex="1" connectable="0">
          <mxGeometry x="-0.1181" y="1" relative="1" as="geometry">
            <mxPoint x="14" y="-17" as="offset" />
          </mxGeometry>
        </mxCell>
        <mxCell id="YAKH-8tsJ9ISijEvY5ng-37" value=":SistemaControle" style="shape=umlLifeline;perimeter=lifelinePerimeter;whiteSpace=wrap;html=1;container=0;collapsible=0;recursiveResize=0;outlineConnect=0;rounded=1;shadow=0;comic=0;labelBackgroundColor=none;strokeWidth=1;fontFamily=Helvetica;fontSize=14;align=center;" parent="1" vertex="1">
          <mxGeometry x="18" y="13" width="162" height="481" as="geometry" />
        </mxCell>
        <mxCell id="YAKH-8tsJ9ISijEvY5ng-38" value="" style="html=1;points=[];perimeter=orthogonalPerimeter;rounded=0;shadow=0;comic=0;labelBackgroundColor=none;strokeWidth=1;fontFamily=Verdana;fontSize=12;align=center;container=0;" parent="1" vertex="1">
          <mxGeometry x="94.73" y="139" width="8.53" height="330" as="geometry" />
        </mxCell>
        <mxCell id="hTcx7FH-oT0N74Yx47Nf-1" value="" style="html=1;points=[];perimeter=orthogonalPerimeter;rounded=0;shadow=0;comic=0;labelBackgroundColor=none;strokeWidth=1;fontFamily=Verdana;fontSize=12;align=center;container=0;" parent="1" vertex="1">
          <mxGeometry x="100" y="154" width="8.53" height="46" as="geometry" />
        </mxCell>
        <mxCell id="hTcx7FH-oT0N74Yx47Nf-2" value="" style="endArrow=classic;html=1;rounded=1;fontSize=12;startSize=8;endSize=8;curved=0;" parent="1" edge="1">
          <mxGeometry width="50" height="50" relative="1" as="geometry">
            <mxPoint x="108.53" y="159" as="sourcePoint" />
            <mxPoint x="108.53" y="192" as="targetPoint" />
            <Array as="points">
              <mxPoint x="129.53" y="159.5" />
              <mxPoint x="129.53" y="190.5" />
            </Array>
          </mxGeometry>
        </mxCell>
        <mxCell id="hTcx7FH-oT0N74Yx47Nf-3" value="iniciarLogDaOperacao()" style="edgeLabel;html=1;align=center;verticalAlign=middle;resizable=0;points=[];fontSize=12;fontFamily=Helvetica;fontColor=default;labelBackgroundColor=default;" parent="hTcx7FH-oT0N74Yx47Nf-2" vertex="1" connectable="0">
          <mxGeometry x="-0.0328" y="1" relative="1" as="geometry">
            <mxPoint x="65" y="1" as="offset" />
          </mxGeometry>
        </mxCell>
        <mxCell id="hTcx7FH-oT0N74Yx47Nf-4" value="" style="html=1;points=[];perimeter=orthogonalPerimeter;rounded=0;shadow=0;comic=0;labelBackgroundColor=none;strokeWidth=1;fontFamily=Verdana;fontSize=12;align=center;container=0;" parent="1" vertex="1">
          <mxGeometry x="100" y="211" width="8.53" height="161" as="geometry" />
        </mxCell>
        <mxCell id="hTcx7FH-oT0N74Yx47Nf-5" value="" style="endArrow=classic;html=1;rounded=1;fontSize=12;startSize=8;endSize=8;curved=0;" parent="1" edge="1">
          <mxGeometry width="50" height="50" relative="1" as="geometry">
            <mxPoint x="108.53" y="217.5" as="sourcePoint" />
            <mxPoint x="108.53" y="250.5" as="targetPoint" />
            <Array as="points">
              <mxPoint x="129.53" y="218" />
              <mxPoint x="129.53" y="249" />
            </Array>
          </mxGeometry>
        </mxCell>
        <mxCell id="hTcx7FH-oT0N74Yx47Nf-6" value="distribuirElevadoresParaAndares(distribuicao)" style="edgeLabel;html=1;align=center;verticalAlign=middle;resizable=0;points=[];fontSize=12;fontFamily=Helvetica;fontColor=default;labelBackgroundColor=default;" parent="hTcx7FH-oT0N74Yx47Nf-5" vertex="1" connectable="0">
          <mxGeometry x="-0.0328" y="1" relative="1" as="geometry">
            <mxPoint x="130" y="2" as="offset" />
          </mxGeometry>
        </mxCell>
        <mxCell id="hTcx7FH-oT0N74Yx47Nf-7" value="loop n&lt;div&gt;(quantidade de&lt;/div&gt;&lt;div&gt;elevadores)&lt;/div&gt;" style="shape=umlFrame;whiteSpace=wrap;html=1;pointerEvents=0;fontFamily=Helvetica;fontSize=12;fontColor=default;labelBackgroundColor=default;width=102;height=54;" parent="1" vertex="1">
          <mxGeometry x="-309" y="266" width="782" height="91" as="geometry" />
        </mxCell>
        <mxCell id="hTcx7FH-oT0N74Yx47Nf-23" value="" style="html=1;points=[];perimeter=orthogonalPerimeter;rounded=0;shadow=0;comic=0;labelBackgroundColor=none;strokeWidth=1;fontFamily=Verdana;fontSize=12;align=center;container=0;" parent="1" vertex="1">
          <mxGeometry x="100" y="408" width="8.53" height="46" as="geometry" />
        </mxCell>
        <mxCell id="hTcx7FH-oT0N74Yx47Nf-24" value="" style="endArrow=classic;html=1;rounded=1;fontSize=12;startSize=8;endSize=8;curved=0;" parent="1" edge="1">
          <mxGeometry width="50" height="50" relative="1" as="geometry">
            <mxPoint x="108.53" y="414.5" as="sourcePoint" />
            <mxPoint x="108.53" y="447.5" as="targetPoint" />
            <Array as="points">
              <mxPoint x="129.53" y="415" />
              <mxPoint x="129.53" y="446" />
            </Array>
          </mxGeometry>
        </mxCell>
        <mxCell id="hTcx7FH-oT0N74Yx47Nf-25" value="salvarLogDaOperacao()" style="edgeLabel;html=1;align=center;verticalAlign=middle;resizable=0;points=[];fontSize=12;fontFamily=Helvetica;fontColor=default;labelBackgroundColor=default;" parent="hTcx7FH-oT0N74Yx47Nf-24" vertex="1" connectable="0">
          <mxGeometry x="-0.0328" y="1" relative="1" as="geometry">
            <mxPoint x="71" y="2" as="offset" />
          </mxGeometry>
        </mxCell>
        <mxCell id="Cu2QGeTz2ypJLkXz-Kmp-1" value=":Elevador" style="shape=umlLifeline;perimeter=lifelinePerimeter;whiteSpace=wrap;html=1;container=0;collapsible=0;recursiveResize=0;outlineConnect=0;rounded=1;shadow=0;comic=0;labelBackgroundColor=none;strokeWidth=1;fontFamily=Helvetica;fontSize=14;align=center;" parent="1" vertex="1">
          <mxGeometry x="349" y="13" width="162" height="486" as="geometry" />
        </mxCell>
        <mxCell id="hTcx7FH-oT0N74Yx47Nf-19" value="" style="html=1;points=[];perimeter=orthogonalPerimeter;rounded=0;shadow=0;comic=0;labelBackgroundColor=none;strokeWidth=1;fontFamily=Verdana;fontSize=12;align=center;container=0;" parent="1" vertex="1">
          <mxGeometry x="425.74" y="284" width="8.53" height="52" as="geometry" />
        </mxCell>
        <mxCell id="Cu2QGeTz2ypJLkXz-Kmp-3" value="" style="endArrow=classic;html=1;rounded=0;fontSize=12;startSize=8;endSize=8;curved=1;" parent="1" edge="1">
          <mxGeometry width="50" height="50" relative="1" as="geometry">
            <mxPoint x="109" y="294" as="sourcePoint" />
            <mxPoint x="424" y="294" as="targetPoint" />
          </mxGeometry>
        </mxCell>
        <mxCell id="Cu2QGeTz2ypJLkXz-Kmp-4" value="setAndares(andares)" style="edgeLabel;html=1;align=center;verticalAlign=middle;resizable=0;points=[];fontSize=12;" parent="Cu2QGeTz2ypJLkXz-Kmp-3" vertex="1" connectable="0">
          <mxGeometry x="-0.466" y="-2" relative="1" as="geometry">
            <mxPoint x="-9" y="-14" as="offset" />
          </mxGeometry>
        </mxCell>
        <mxCell id="LfAJqv20D3oY_1FFXokJ-3" value="" style="endArrow=classic;html=1;rounded=0;fontSize=12;startSize=8;endSize=8;curved=1;" parent="1" edge="1">
          <mxGeometry width="50" height="50" relative="1" as="geometry">
            <mxPoint x="108.53" y="328" as="sourcePoint" />
            <mxPoint x="423" y="328" as="targetPoint" />
          </mxGeometry>
        </mxCell>
        <mxCell id="A0mjqDbXCyDah4mli8G4-1" value="elevador.distribuicaoPorAndares = True" style="edgeLabel;html=1;align=center;verticalAlign=middle;resizable=0;points=[];fontSize=12;" parent="LfAJqv20D3oY_1FFXokJ-3" vertex="1" connectable="0">
          <mxGeometry x="-0.7134" y="-1" relative="1" as="geometry">
            <mxPoint x="76" y="-10" as="offset" />
          </mxGeometry>
        </mxCell>
        <mxCell id="Cu2QGeTz2ypJLkXz-Kmp-5" value="" style="endArrow=open;html=1;rounded=0;fontSize=12;startSize=8;endSize=8;curved=1;entryX=1.076;entryY=0.975;entryDx=0;entryDy=0;entryPerimeter=0;dashed=1;endFill=0;exitX=-0.002;exitY=0.659;exitDx=0;exitDy=0;exitPerimeter=0;" parent="1" edge="1">
          <mxGeometry width="50" height="50" relative="1" as="geometry">
            <mxPoint x="94.73294000000011" y="389.00200000000007" as="sourcePoint" />
            <mxPoint x="-138.22" y="390.06000000000006" as="targetPoint" />
          </mxGeometry>
        </mxCell>
        <mxCell id="Cu2QGeTz2ypJLkXz-Kmp-6" value="Mensagem de confirmação" style="edgeLabel;html=1;align=center;verticalAlign=middle;resizable=0;points=[];fontSize=12;" parent="Cu2QGeTz2ypJLkXz-Kmp-5" vertex="1" connectable="0">
          <mxGeometry x="0.1252" y="-1" relative="1" as="geometry">
            <mxPoint x="13" y="-8" as="offset" />
          </mxGeometry>
        </mxCell>
        <mxCell id="YAKH-8tsJ9ISijEvY5ng-3" value="Usuário&lt;br&gt;(Admin ou Master&lt;span style=&quot;background-color: initial;&quot;&gt;)&lt;/span&gt;" style="shape=umlActor;verticalLabelPosition=bottom;verticalAlign=top;html=1;outlineConnect=0;" parent="1" vertex="1">
          <mxGeometry x="-159" y="-29" width="30" height="56.46" as="geometry" />
        </mxCell>
      </root>
    </mxGraphModel>
  </diagram>
</mxfile>
